<svg width="14.250000" height="15.833008" viewBox="0 0 14.25 15.833" fill="none" xmlns="http://www.w3.org/2000/svg" xmlns:xlink="http://www.w3.org/1999/xlink">
	<desc>
			Created with Pixso.
	</desc>
	<defs/>
	<g style="mix-blend-mode:normal">
		<path id="icon" d="M4.75 0.39L4.75 1.18C4.75 1.4 4.92 1.58 5.14 1.58L9.1 1.58C9.32 1.58 9.49 1.4 9.49 1.18L9.49 0.39C9.49 0.17 9.32 0 9.1 0L5.14 0C4.92 0 4.75 0.17 4.75 0.39ZM12.66 3.95L13.85 3.95C14.07 3.95 14.25 3.78 14.25 3.56L14.25 2.77C14.25 2.55 14.07 2.37 13.85 2.37L0.39 2.37C0.17 2.37 0 2.55 0 2.77L0 3.56C0 3.78 0.17 3.95 0.39 3.95L1.58 3.95L1.95 15.06C1.96 15.49 2.31 15.83 2.74 15.83L11.5 15.83C11.93 15.83 12.28 15.49 12.29 15.06L12.66 3.95ZM3.16 3.95L11.08 3.95L10.68 14.24L3.56 14.24L3.16 3.95ZM5.93 5.54L5.14 5.54C4.92 5.54 4.75 5.71 4.75 5.93L4.75 12.27C4.75 12.48 4.92 12.66 5.14 12.66L5.93 12.66C6.15 12.66 6.33 12.48 6.33 12.27L6.33 5.93C6.33 5.71 6.15 5.54 5.93 5.54ZM9.1 5.54L8.31 5.54C8.09 5.54 7.91 5.71 7.91 5.93L7.91 12.27C7.91 12.48 8.09 12.66 8.31 12.66L9.1 12.66C9.32 12.66 9.5 12.48 9.5 12.27L9.5 5.93C9.5 5.71 9.32 5.54 9.1 5.54Z" fill="#FFFFFF" fill-opacity="1.000000" fill-rule="evenodd"/>
	</g>
</svg>
