<svg width="27.750000" height="27.750000" viewBox="0 0 27.75 27.75" fill="none" xmlns="http://www.w3.org/2000/svg" xmlns:xlink="http://www.w3.org/1999/xlink">
	<desc>
			Created with Pixso.
	</desc>
	<defs/>
	<path id="矢量 110" d="M10.93 19.4L13.1 21.58L20.81 13.87L13.1 6.16L10.93 8.34L14.9 12.33L0 12.33L0 15.41L14.9 15.41L10.93 19.4ZM24.66 0L3.08 0C1.37 0 0 1.38 0 3.08L0 9.25L3.08 9.25L3.08 3.08L24.66 3.08L24.66 24.66L3.08 24.66L3.08 18.5L0 18.5L0 24.66C0 26.36 1.37 27.75 3.08 27.75L24.66 27.75C26.36 27.75 27.75 26.36 27.75 24.66L27.75 3.08C27.75 1.38 26.36 0 24.66 0Z" fill="#B1D9FF" fill-opacity="1.000000" fill-rule="evenodd"/>
</svg>
