<svg width="28.216675" height="28.217865" viewBox="0 0 28.2167 28.2179" fill="none" xmlns="http://www.w3.org/2000/svg" xmlns:xlink="http://www.w3.org/1999/xlink">
	<desc>
			Created with Pixso.
	</desc>
	<defs/>
	<path id="Shape" d="M27.66 25.28C26.85 23.43 22.93 22.2 20.32 21.05C17.71 19.9 18.06 19.2 17.98 18.24C17.96 18.12 17.96 17.98 17.96 17.84C18.86 17.04 19.58 15.95 20.06 14.7C20.06 14.7 20.08 14.62 20.09 14.61C20.2 14.34 20.29 14.04 20.36 13.76C20.96 13.64 21.31 12.98 21.43 12.38C21.58 12.14 21.84 11.54 21.79 10.85C21.7 9.97 21.35 9.56 20.96 9.4C20.96 9.35 20.96 9.3 20.96 9.24C20.96 8.13 20.85 6.51 20.66 5.45C20.62 5.15 20.55 4.87 20.46 4.57C20.08 3.28 19.28 2.1 18.2 1.28C17.08 0.45 15.5 0 14.11 0C12.72 0 11.15 0.44 10.03 1.28C8.96 2.11 8.16 3.28 7.78 4.57C7.69 4.87 7.62 5.15 7.58 5.45C7.37 6.51 7.28 8.11 7.28 9.24C7.28 9.3 7.28 9.33 7.28 9.38C6.86 9.54 6.49 9.95 6.4 10.85C6.35 11.52 6.63 12.12 6.75 12.37C6.89 12.98 7.25 13.64 7.86 13.74C7.93 14.04 8.02 14.32 8.13 14.61C8.13 14.62 8.15 14.64 8.15 14.66L8.16 14.68C8.64 15.95 9.4 17.06 10.32 17.85C10.32 17.98 10.3 18.1 10.3 18.22C10.21 19.18 10.48 19.88 7.88 21.03C5.27 22.18 1.35 23.41 0.54 25.27C-0.27 27.12 0.06 28.21 0.06 28.21L28.16 28.21C28.14 28.23 28.48 27.14 27.66 25.28Z" fill="#B1D9FF" fill-opacity="1.000000" fill-rule="evenodd"/>
</svg>
