<svg width="48.292297" height="35.130737" viewBox="0 0 48.2923 35.1307" fill="none" xmlns="http://www.w3.org/2000/svg" xmlns:xlink="http://www.w3.org/1999/xlink">
	<desc>
			Created with Pixso.
	</desc>
	<defs/>
	<path id="矢量 8" d="M4.28 32.1C1.49 29.29 0 26.14 0 21.03C0 12.04 6.65 3.98 16.33 0L18.74 3.53C9.71 8.17 7.95 14.18 7.24 17.97C8.7 17.26 10.6 17.01 12.47 17.17C17.35 17.6 21.2 21.41 21.2 26.14C21.2 28.52 20.21 30.81 18.43 32.49C16.65 34.18 14.24 35.13 11.72 35.13C8.82 35.13 6.04 33.87 4.28 32.1L4.28 32.1ZM31.37 32.1C28.58 29.29 27.08 26.14 27.08 21.03C27.08 12.04 33.73 3.98 43.41 0L45.83 3.53C36.8 8.17 35.03 14.18 34.33 17.97C35.78 17.26 37.68 17.01 39.55 17.17C44.44 17.6 48.29 21.41 48.29 26.14C48.29 28.52 47.29 30.81 45.51 32.49C43.73 34.18 41.32 35.13 38.81 35.13C35.9 35.13 33.12 33.87 31.37 32.1L31.37 32.1Z" fill="#B1D9FF" fill-opacity="1.000000" fill-rule="evenodd"/>
</svg>
